Coordinates
version=1
nRows=11
nColumns=40
inDegrees=yes

Units are S.I. units (second, meters, Newtons, ...)
Angles are in degrees.

endheader
time	pelvis_tilt	pelvis_list	pelvis_rotation	pelvis_tx	pelvis_ty	pelvis_tz	hip_flexion_r	hip_adduction_r	hip_rotation_r	knee_angle_r	knee_angle_r_beta	ankle_angle_r	subtalar_angle_r	mtp_angle_r	hip_flexion_l	hip_adduction_l	hip_rotation_l	knee_angle_l	knee_angle_l_beta	ankle_angle_l	subtalar_angle_l	mtp_angle_l	lumbar_extension	lumbar_bending	lumbar_rotation	arm_flex_r	arm_add_r	arm_rot_r	elbow_flex_r	pro_sup_r	wrist_flex_r	wrist_dev_r	arm_flex_l	arm_add_l	arm_rot_l	elbow_flex_l	pro_sup_l	wrist_flex_l	wrist_dev_l
     16.26228571	     -5.57987358	     -7.12826711	      3.40912367	      0.95563827	      0.91640918	      0.47052364	     -0.17287879	      6.77232659	    -17.04867246	     10.24694717	     10.24694717	     18.00521108	      6.47926471	     -1.04849510	     33.62408900	     -7.48212153	     -3.19976051	     20.35961100	     20.35961100	      2.52472111	    -11.93565197	      7.58896713	     -9.15896262	      7.01174071	      4.22082094	     44.65398058	    -13.25217300	      1.74965323	     95.84581479	     44.46797754	      0.00000000	      0.00000000	    -11.32941130	     -6.73428246	     -0.06237261	     27.12652058	     44.85275017	      0.00000000	      0.00000000
     16.27457143	     -5.69898494	     -7.03962703	      3.23599411	      0.95723049	      0.91487823	      0.46908036	     -0.37125403	      6.50401831	    -16.67419709	     10.90178221	     10.90178221	     18.75069753	      6.09720697	     -0.83811257	     33.43612755	     -7.27524125	     -2.89926137	     21.12924376	     21.12924376	      1.75349377	    -13.19461443	      7.27062650	     -8.80054298	      6.82169109	      4.19311436	     44.21288004	    -13.23158803	      1.89622412	     96.67988907	     44.45143365	      0.00000000	      0.00000000	    -11.79811388	     -6.78373679	      0.20164648	     27.23186001	     44.81966824	      0.00000000	      0.00000000
     16.28685714	     -5.65281816	     -6.91637045	      3.08150373	      0.95894077	      0.91373574	      0.46769356	     -0.80918688	      6.22644831	    -16.36390605	     11.43966865	     11.43966865	     19.35465556	      5.85008106	     -0.82455554	     33.15670876	     -7.12708706	     -2.79945561	     22.06604810	     22.06604810	      1.50775435	    -13.88272044	      6.96349226	     -8.62916926	      6.50570847	      4.20092703	     43.64953965	    -13.21392284	      1.98748033	     96.96914270	     44.44404121	      0.00000000	      0.00000000	    -12.04162440	     -6.87271038	      0.28098384	     27.22645646	     44.81072021	      0.00000000	      0.00000000
     16.29914286	     -5.58208264	     -6.71062199	      2.90276454	      0.96069995	      0.91303109	      0.46609626	     -1.32565823	      5.84353292	    -16.01604300	     11.86082446	     11.86082446	     19.74733563	      5.70640064	     -0.89389657	     32.76594142	     -6.90888635	     -2.81191849	     22.85426875	     22.85426875	      1.58533343	    -14.38233473	      6.74004576	     -8.46321719	      6.18173597	      4.11082638	     42.92914362	    -13.19467812	      2.08834279	     97.01139793	     44.43869064	      0.00000000	      0.00000000	    -12.30270654	     -6.87570273	      0.30022088	     27.14178191	     44.80568359	      0.00000000	      0.00000000
     16.31142857	     -5.72778215	     -6.51715033	      2.71684697	      0.96187375	      0.91204277	      0.46455347	     -0.92965075	      5.32817129	    -15.42736995	     13.52385995	     13.52385995	     20.36094513	      4.58899381	     -0.81962747	     32.80499342	     -6.64902210	     -2.56316225	     23.85307459	     23.85307459	      1.57812784	    -15.34043469	      6.16074217	     -8.20747001	      5.80230936	      4.12582101	     41.90050304	    -13.36072447	      2.24394378	     97.77899098	     44.41721114	      0.00000000	      0.00000000	    -12.27434064	     -6.97344643	      0.37542701	     27.17732390	     44.80893753	      0.00000000	      0.00000000
     16.32371429	     -5.69082010	     -6.30249648	      2.56047362	      0.96318097	      0.91183876	      0.46291189	     -0.88965963	      4.84877389	    -14.84491472	     14.84842334	     14.84842334	     20.70282729	      3.63782546	     -0.73241451	     32.52782043	     -6.40510533	     -2.47085630	     24.64830700	     24.64830700	      1.91039808	    -15.89938211	      5.65229286	     -8.13806369	      5.39361466	      4.22595058	     40.62635134	    -13.63037143	      2.33168655	     98.26846928	     44.40850247	      0.00000000	      0.00000000	    -12.06556772	     -7.06830588	      0.46108460	     27.07322526	     44.81864641	      0.00000000	      0.00000000
     16.33600000	     -5.61786220	     -6.08132812	      2.40614043	      0.96437217	      0.91196143	      0.46120989	     -0.68290408	      4.29844427	    -14.36997769	     16.52811487	     16.52811487	     20.83648383	      2.73121874	     -0.99144319	     32.22277066	     -6.18121897	     -2.47132968	     25.44832290	     25.44832290	      2.55002903	    -16.28284283	      5.24046446	     -8.12351624	      4.98118749	      4.18747763	     39.38410571	    -13.75103845	      2.46811117	     98.37663087	     44.40470396	      0.00000000	      0.00000000	    -11.75390226	     -7.14364869	      0.50209041	     26.95693903	     44.83042931	      0.00000000	      0.00000000
     16.34828571	     -5.32100026	     -5.99969388	      2.34830293	      0.96563345	      0.91291422	      0.45938721	     -0.79916390	      3.92015839	    -14.16040838	     17.99863435	     17.99863435	     20.62210350	      2.08239778	     -1.21723117	     31.59426525	     -6.05703177	     -2.33287573	     26.05693346	     26.05693346	      3.28878815	    -16.55834758	      4.89353200	     -8.37656455	      4.74539545	      3.92672639	     37.88394564	    -13.71287686	      2.69679396	     98.15416491	     44.40172277	      0.00000000	      0.00000000	    -11.42662234	     -7.18533472	      0.51343794	     26.94002494	     44.83933029	      0.00000000	      0.00000000
     16.36057143	     -5.55552563	     -5.73438129	      2.11039984	      0.96609945	      0.91317276	      0.45769248	      0.45846114	      3.25873375	    -13.22861045	     20.78920218	     20.78920218	     19.64681506	     -0.27977253	     -3.74030360	     31.53737679	     -5.82110974	     -2.57921962	     26.65738003	     26.65738003	      4.36796645	    -16.54097172	      5.34314304	     -8.13406974	      4.26060529	      4.63739487	     35.86609931	    -14.55705086	      2.23701691	     99.06329854	     44.45172234	      0.00000000	      0.00000000	    -10.07816079	     -7.22797554	      0.65238254	     25.58032345	     44.94726883	      0.00000000	      0.00000000
     16.37285714	     -5.51947434	     -5.53326612	      1.96271695	      0.96670770	      0.91417188	      0.45584072	      1.44792283	      2.59622707	    -12.89847874	     23.67732804	     23.67732804	     19.04150713	     -1.68874964	     -4.44569872	     31.00229083	     -5.62267161	     -2.80065211	     26.90049915	     26.90049915	      5.12616829	    -16.50105096	      4.98153973	     -8.16329903	      3.88233044	      4.46024505	     34.31859995	    -14.60186072	      2.52996507	     98.50282602	     44.46313013	      0.00000000	      0.00000000	     -9.53387668	     -7.28217578	      0.62798902	     25.70857630	     44.97359162	      0.00000000	      0.00000000
     16.38514286	     -5.39544531	     -5.32995912	      1.80124318	      0.96721172	      0.91543634	      0.45399209	      2.52832219	      1.90584016	    -12.65081868	     26.84446662	     26.84446662	     18.17875383	     -3.19382254	     -5.15257643	     30.32204559	     -5.44642413	     -3.11301337	     27.06094051	     27.06094051	      5.86958592	    -16.36713656	      4.61093441	     -8.31209371	      3.50755977	      4.28702052	     32.61689771	    -14.61212887	      2.83547737	     97.86704942	     44.47237728	      0.00000000	      0.00000000	     -8.89762418	     -7.38460861	      0.58882320	     25.84705053	     44.99965366	      0.00000000	      0.00000000
